<?xml version="1.0" encoding="utf-8"?>
<!-- Generator: Adobe Illustrator 24.1.3, SVG Export Plug-In . SVG Version: 6.00 Build 0)  -->
<svg version="1.1" id="Layer_1" xmlns="http://www.w3.org/2000/svg" xmlns:xlink="http://www.w3.org/1999/xlink" x="0px" y="0px"
	 viewBox="0 0 390 103" style="enable-background:new 0 0 390 103;" xml:space="preserve">
<g>
	<g>
		<path d="M32.31,64.14c-1.4,2.79-4.65,8.65-12.38,8.65C7.28,72.79,2.81,57.8,2.81,37.61C2.81,21.8,7.1,4.68,20.31,4.68
			c2.7,0,3.17-0.19,3.17-1.4l2.7-1.02l3.91,9.3l-2.98,1.21c-1.95-2.23-4.09-3.62-6.79-3.62c-6.89,0-12.56,10.23-12.56,29.21
			c0,17.13,3.53,29.97,12.19,29.97c4.65,0,7.81-3.91,9.12-6.89L32.31,64.14z"/>
		<path d="M36.98,71.77v-3.23c3.73-0.42,3.73-0.85,3.73-3.31V18.2c0-2.46,0-2.97-3.73-3.31v-3.23h11.46v3.23
			c-3.48,0.34-3.48,0.85-3.48,3.31v49.84h8.83c3.65,0,4.58-1.87,5.85-3.74l2.72,1.7l-3.14,6.79c-1.19-0.42-2.8-0.68-4.5-0.77
			c-1.7-0.17-3.48-0.25-5.1-0.25H36.98z"/>
		<path d="M65.25,71.77v-3.23c2.38-0.25,3.82,0,4.25-3.65l4.24-40.08c0.34-2.97,0.76-6.79,0.76-8.23c0-1.28-0.85-1.53-3.4-1.7V11.4
			c4.16,0.17,8.24,0.25,12.39,0.25c3.4,0,8.24-0.08,12.14-0.25v3.48c-2.38,0.17-3.4,0.26-3.4,1.7c0,1.44,0.42,5.26,0.76,8.23
			l4.75,40.08c0.42,3.65,1.87,3.4,3.74,3.65v3.23H90.38v-3.23c2.12-0.17,3.31-0.17,3.31-2.21c-0.17-2.12-0.51-4.67-0.77-7.3
			l-3.99-34.47H77.9l-3.56,34.47c-0.25,2.64-0.6,5.18-0.77,7.3c0,2.04,1.19,2.04,3.31,2.21v3.23H65.25z M78.24,20.83h10.19
			l-0.51-5.43h-9.09L78.24,20.83z"/>
		<path d="M106.85,71.77v-3.23c3.48-0.42,3.48-0.85,3.48-3.31V18.2c0-2.46,0-2.97-3.48-3.31v-3.23h11.21v3.23
			c-3.48,0.34-3.48,0.85-3.48,3.31v47.04c0,2.29,0,2.89,3.48,3.31v3.23H106.85z"/>
		<path d="M124.08,71.77v-3.23c3.48-0.42,3.48-0.85,3.48-3.31V18.2c0-2.46,0-2.97-3.48-3.31v-3.23h15.45c7.39,0,9.59,2.97,9.59,6.96
			c0,2.63-0.93,5.52-4.93,6.63c0,8.32,1.02,27.25,3.14,35.15c1.53,5.86,2.97,7.73,5.86,8.15v3.23h-6.45
			c-1.1-2.46-2.21-5.18-3.31-9.34c-2.71-10.19-3.48-28.44-3.48-36.93h-8.15v39.74c0,2.29,0,2.89,3.48,3.31v3.23H124.08z
			 M139.53,21.76c3.4,0,5.1-0.76,5.1-3.22c0-2.21-2.29-3.14-5.1-3.14h-7.73v6.37H139.53z"/>
		<path d="M164.66,71.77v-3.23c1.19-0.17,3.31,0,3.31-1.44c0-1.19-1.1-6.03-1.78-9.43l-7.98-39.31c-0.51-2.46-1.36-3.23-3.23-3.48
			v-3.23h9.68v3.23c-1.62,0.17-2.72,0.09-2.72,1.28c0,0.51,1.11,5.77,1.78,9.08l7.56,37.87h0.17l7.22-37.87
			c0.68-3.31,1.78-8.58,1.78-9.08c0-1.19-1.1-1.1-2.71-1.28v-3.23h9.68v3.23c-1.87,0.26-2.72,1.02-3.23,3.48l-7.73,39.31
			c-0.68,3.4-1.53,8.24-1.53,9.43c0,1.44,2.12,1.27,3.31,1.44v3.23H164.66z"/>
		<path d="M228.93,71.77v-3.23c3.48-0.34,3.48-0.85,3.48-3.31V24.31l-6.79-7.22c-1.02-1.02-1.87-2.03-3.91-2.21v-3.23h10.1v3.23
			c-1.19,0.17-2.38,0.17-2.38,0.77c0,0.42,0.93,1.27,1.44,1.78l3.73,3.74l4.08-3.65c0.93-0.85,1.78-1.44,1.78-1.96
			c0-0.59-1.87-0.59-2.8-0.68v-3.23h9.68v3.23c-1.7,0.34-2.13,1.28-3.4,2.3l-7.3,7.13v40.92c0,2.46,0,2.97,3.48,3.31v3.23H228.93z"
			/>
		<path d="M248.37,71.77v-3.23c2.38-0.25,3.82,0,4.24-3.65l4.25-40.08c0.34-2.97,0.77-6.79,0.77-8.23c0-1.28-0.85-1.53-3.4-1.7V11.4
			c4.16,0.17,8.24,0.25,12.4,0.25c3.4,0,8.24-0.08,12.14-0.25v3.48c-2.37,0.17-3.39,0.26-3.39,1.7c0,1.44,0.42,5.26,0.76,8.23
			l4.76,40.08c0.42,3.65,1.87,3.4,3.73,3.65v3.23H273.5v-3.23c2.12-0.17,3.32-0.17,3.32-2.21c-0.18-2.12-0.51-4.67-0.77-7.3
			l-3.99-34.47h-11.04l-3.56,34.47c-0.26,2.64-0.6,5.18-0.77,7.3c0,2.04,1.19,2.04,3.31,2.21v3.23H248.37z M261.36,20.83h10.19
			l-0.51-5.43h-9.09L261.36,20.83z"/>
		<path d="M289.63,68.54c3.48-0.42,3.48-0.85,3.48-3.31V18.2c0-2.46,0-2.97-3.48-3.31v-3.23h7.73v0.85c0,1.44,0.17,1.61,1.44,2.29
			l13.84,7.73V18.2c0-2.46,0-2.97-3.48-3.31v-3.23h11.21v3.23c-3.48,0.34-3.48,0.85-3.48,3.31v47.04c0,2.29,0,2.89,3.48,3.31v3.23
			h-11.21v-3.23c3.48-0.42,3.48-0.85,3.48-3.31V26.86l-15.28-8.66v47.04c0,2.29,0,2.89,3.48,3.31v3.23h-11.21V68.54z"/>
		<path d="M352.88,64.89c-1.28,2.55-4.24,7.9-11.29,7.9c-11.55,0-15.62-13.67-15.62-32.1c0-14.43,3.91-30.06,15.97-30.06
			c2.46,0,2.89-0.17,2.89-1.27l2.46-0.94l3.56,8.49l-2.71,1.1c-1.78-2.04-3.73-3.31-6.2-3.31c-6.28,0-11.46,9.34-11.46,26.66
			c0,15.62,3.23,27.34,11.12,27.34c4.24,0,7.13-3.57,8.32-6.28L352.88,64.89z"/>
		<path d="M358.06,71.62V67.9c4.4-0.49,4.4-0.98,4.4-3.81V9.94c0-2.84,0-3.42-4.4-3.81V2.41h11.83c2.35,0,6.16,0,9.68-1.47
			l3.52,6.65l-2.93,1.66c-1.56-1.27-2.35-2.54-5.57-2.54h-7.24v8.41h9.19c3.23,0,3.52-1.08,3.62-2.74h2.93v9.78h-2.93
			c-0.3-1.47-0.68-2.74-3.42-2.74h-9.39v47.9h10.07c4.49,0,5.18-2.05,6.84-4.11l2.93,1.96l-3.52,7.62c-1.85-0.49-4.2-0.78-6.64-0.97
			c-2.35-0.2-4.69-0.2-6.45-0.2H358.06z"/>
		<path d="M205.09,8.77c-17.68,0-10.99,32.52-21.64,34.69c10.16,2.33,3.89,32.22,21.64,32.22c17.75,0,11.48-29.89,21.64-32.22
			C216.08,41.3,222.77,8.77,205.09,8.77z M205.09,70.94c-7.08,0-12.81-12.84-12.81-28.72c0-15.87,5.74-28.72,12.81-28.72
			c7.07,0,12.81,12.85,12.81,28.72C217.91,58.1,212.17,70.94,205.09,70.94z"/>
		<path d="M211.67,42.22c0,4.64-2.95,8.41-6.58,8.41c-3.63,0-6.58-3.77-6.58-8.41s2.95-8.41,6.58-8.41
			C208.73,33.82,211.67,37.58,211.67,42.22z"/>
	</g>
	<g>
		<g>
			<path d="M19.39,98.76h0.78V86.73c0.6,0,1.49-0.02,2.11-0.02c1.46,0,2.21,0.04,3.24,0.35c1.65,0.48,2.58,1.96,2.58,3.4
				c0,3.74-3.41,4.35-6.19,4.35l-0.02,3.96h0.78v0.78h-3.28V98.76z M26.47,90.73c0-2.42-2.17-3.24-4.52-2.79l-0.04,5.51
				C24.14,93.87,26.47,93,26.47,90.73z"/>
			<path d="M30.96,97.11v0.85c2.5,0.87,8.11-1.11,3.67-3.78c-1.44-0.8-2.77-1.51-3.41-2.04c-0.64-0.54-1.03-1.2-1.03-1.94
				c0.06-2.41,2.02-3.51,4.25-3.51c0.62-0.02,1.38,0.02,1.98,0.14v-0.8h0.78v2.93h-0.78v-0.78c-1.9-1.16-5.86,0.62-4.02,2.66
				c0.41,0.29,1.47,0.93,2.68,1.67c1.96,0.95,3.22,2.21,3.01,3.88c-0.37,2.74-4.42,3.2-7.12,3.07v0.53h-0.78v-2.87H30.96z"/>
			<path d="M54.96,87.43h-1.46l-5.12,5.69v5.65h0.76v0.78H45.8v-0.78h0.78l0.06-5.63l-5.01-5.7H40.2v-0.78h4.44v0.78h-0.8l3.65,4.33
				l3.86-4.33h-0.82v-0.78h4.42V87.43z"/>
			<path d="M66.5,89.02v-0.78c-3.88-1.92-7.49,1.16-7.49,5.14c0,2.58,1.32,5.06,4.31,5.06c1.05,0,2.27-0.29,3.18-0.66v-0.78h0.78
				v2.62H66.5v-0.78c-1.26,0.45-2.46,0.72-3.45,0.72c-3.34,0-5.9-2.13-6-5.72v-0.02c0.04-4.06,2.95-7.14,7.16-7.14
				c0.93,0,1.77,0.14,2.29,0.31v-0.78h0.78v2.79H66.5z"/>
			<path d="M69.35,86.68h3.32v0.78H71.9v4.93h6.36v-4.93h-0.78v-0.78h3.32v0.78h-0.78v11.31h0.78v0.78h-3.32v-0.78h0.78v-5.43H71.9
				v5.43h0.78v0.78h-3.32v-0.78h0.78V87.45h-0.78V86.68z"/>
			<path d="M82.89,86.68h3.32v0.78h-0.78v11.31h0.78v0.78h-3.32v-0.78h0.78V87.45h-0.78V86.68z"/>
			<path d="M97.73,89.02v-0.78c-3.88-1.92-7.49,1.16-7.49,5.14c0,2.58,1.32,5.06,4.31,5.06c1.05,0,2.27-0.29,3.18-0.66v-0.78h0.78
				v2.62h-0.78v-0.78c-1.26,0.45-2.46,0.72-3.45,0.72c-3.34,0-5.9-2.13-5.99-5.72v-0.02c0.04-4.06,2.95-7.14,7.16-7.14
				c0.93,0,1.77,0.14,2.29,0.31v-0.78h0.78v2.79H97.73z"/>
			<path d="M115.94,95.74c0,2.23-1.94,3.76-4.95,3.76c-0.82,0-1.63-0.02-3.47-0.02V86.68h2.89c1.07-0.02,2.15,0.16,3.16,0.56
				c0.89,0.43,1.55,1.4,1.55,2.42c0,1.47-1.05,2.54-2.37,3.01v0.12C114.54,93,115.94,94.15,115.94,95.74z M114.29,95.91
				c0-1.22-0.93-2.5-3.8-2.5c-0.68,0-1.07,0-1.2,0.04l-0.02,4.4c-0.02,0.6,0.39,0.74,1.71,0.74
				C112.56,98.59,114.29,97.85,114.29,95.91z M109.28,92.28c0.12,0.02,0.47,0.04,0.97,0.04c1.76,0,3.32-0.8,3.32-2.33
				c0-1.36-0.99-2.39-3.1-2.39c-0.64,0-0.99,0.02-1.16,0.06L109.28,92.28z"/>
			<path d="M130.21,98.76v0.78H127v-0.78h0.78c-0.56-1.51-0.93-2.33-1.24-3.12c-0.02-0.08-0.06-0.02-0.14-0.02l-4.75,0.02
				c-0.31,0.85-0.66,1.53-1.26,3.12h0.78v0.78h-3.14v-0.78h0.78c0.8-2.09,3.65-8.98,4.79-12.03c0.25-0.02,0.87-0.02,1.3-0.02
				c1.32,3.55,3.05,7.95,4.54,12.05H130.21z M126.23,94.36c-0.62-1.84-1.4-3.57-2.04-5.41h-0.08c-0.68,1.8-1.45,3.51-2.11,5.3
				c-0.04,0.08-0.02,0.12,0.04,0.12H126.23z"/>
			<path d="M142.63,85.86v2.74h-0.78v-0.78h-3.49v11.74l-1.8-0.02V87.82h-3.49v0.78h-0.78v-2.74h0.78v0.8h8.79v-0.8H142.63z"/>
			<path d="M155.06,85.86v2.74h-0.78v-0.78h-3.49v11.74l-1.8-0.02V87.82h-3.49v0.78h-0.78v-2.74h0.78v0.8h8.79v-0.8H155.06z"/>
			<path d="M157.14,86.68h3.32v0.78h-0.78V98.2h5.7v-0.8h0.78v2.91h-0.78v-0.78h-7.47V87.45h-0.78V86.68z"/>
			<path d="M175.61,88.33v-0.78c-2.99-0.02-3.82,0.02-5.22,0.02l-0.02,4.91l2.66,0.02v-0.78h0.78v2.48h-0.78v-0.78
				c-0.78-0.02-1.67-0.02-2.66-0.02l-0.02,5.08h5.26v-0.78h0.78v2.62h-0.78v-0.78c-1.09-0.02-3.45-0.02-6.98-0.02V86.62
				c1.61,0,4.95-0.02,6.98-0.02v-0.76h0.78v2.48H175.61z"/>
			<path d="M179.25,97.11v0.85c2.5,0.87,8.11-1.11,3.67-3.78c-1.44-0.8-2.77-1.51-3.41-2.04c-0.64-0.54-1.03-1.2-1.03-1.94
				c0.06-2.41,2.02-3.51,4.25-3.51c0.62-0.02,1.38,0.02,1.98,0.14v-0.8h0.78v2.93h-0.78v-0.78c-1.9-1.16-5.86,0.62-4.02,2.66
				c0.41,0.29,1.47,0.93,2.68,1.67c1.96,0.95,3.22,2.21,3.01,3.88c-0.37,2.74-4.42,3.2-7.12,3.07v0.53h-0.78v-2.87H179.25z"/>
			<path d="M188.68,99.52v-1.9h1.96v1.9H188.68z"/>
			<path d="M211.64,98.76v0.78h-3.2v-0.78h0.78c-0.56-1.51-0.93-2.33-1.24-3.12c-0.02-0.08-0.06-0.02-0.14-0.02l-4.75,0.02
				c-0.31,0.85-0.66,1.53-1.26,3.12h0.78v0.78h-3.14v-0.78h0.78c0.8-2.09,3.65-8.98,4.79-12.03c0.25-0.02,0.87-0.02,1.3-0.02
				c1.32,3.55,3.05,7.95,4.54,12.05H211.64z M207.66,94.36c-0.62-1.84-1.4-3.57-2.04-5.41h-0.08c-0.68,1.8-1.45,3.51-2.11,5.3
				c-0.04,0.08-0.02,0.12,0.04,0.12H207.66z"/>
			<path d="M213.72,86.68h3.32v0.78h-0.78V98.2h5.7v-0.8h0.78v2.91h-0.78v-0.78h-7.47V87.45h-0.78V86.68z"/>
			<path d="M225.6,97.11v0.85c2.5,0.87,8.11-1.11,3.67-3.78c-1.44-0.8-2.77-1.51-3.41-2.04c-0.64-0.54-1.03-1.2-1.03-1.94
				c0.06-2.41,2.02-3.51,4.25-3.51c0.62-0.02,1.38,0.02,1.98,0.14v-0.8h0.78v2.93h-0.78v-0.78c-1.9-1.16-5.86,0.62-4.02,2.66
				c0.41,0.29,1.47,0.93,2.68,1.67c1.96,0.95,3.22,2.21,3.01,3.88c-0.37,2.74-4.42,3.2-7.12,3.07v0.53h-0.78v-2.87H225.6z"/>
			<path d="M240.78,99.54c-3.82-0.21-5.94-2.83-5.94-6.32c0-3.92,2.99-6.56,6.6-6.56c3.57,0,5.82,2.66,5.82,6.05
				c0,4.07-2.56,6.77-6.46,6.83H240.78z M241.11,98.47c2.91-0.06,4.25-2.75,4.25-5.35c0-2.66-1.34-5.41-4.15-5.41
				c-2.99,0-4.44,2.74-4.44,5.37c0,2.78,1.46,5.39,4.33,5.39H241.11z"/>
			<path d="M249.64,99.52v-1.8h1.96v1.8c0,0.66-0.12,1.18-0.35,1.59c-0.23,0.41-0.8,0.74-1.3,0.95l-0.41-0.66
				c0.33-0.16,0.56-0.37,0.72-0.66c0.16-0.29,0.23-0.7,0.25-1.22H249.64z"/>
			<path d="M260.41,98.76h0.78V86.62c1.61,0,4.95-0.02,6.99-0.02v-0.76h0.78v2.48h-0.78v-0.78c-2.99-0.02-3.82,0.02-5.22,0.02
				l-0.02,4.91l2.66,0.02v-0.78h0.78v2.48h-0.78v-0.78c-0.78-0.02-1.67-0.02-2.66-0.02l-0.02,5.36h0.78v0.78h-3.28V98.76z"/>
			<path d="M274.35,87.43h-0.78v6.46c0.08,2.46,0.85,4.38,3.37,4.38c2.87,0,3.45-1.9,3.45-4.38v-6.46h-0.78v-0.78h3.32v0.78h-0.78
				v6.46c-0.1,3.71-1.53,5.65-5.07,5.65c-3.78,0-5.3-2.33-5.3-5.65v-6.46h-0.78v-0.78h3.32V87.43z"/>
			<path d="M291.93,98.76h0.78l-3.2-4.4c-0.68,0.06-1.34,0.06-1.96,0.06l-0.02,4.35h0.78v0.78h-3.28v-0.78h0.76V86.73
				c0.6,0,1.51-0.02,2.13-0.02c1.45,0,2.21,0.04,3.24,0.35c1.65,0.48,3.01,1.96,3.01,3.4c0,2.15-1.28,3.14-2.87,3.59l3.37,4.71h0.8
				v0.78h-3.53V98.76z M292.49,90.73c0-2.42-2.56-3.24-4.91-2.79l-0.04,5.12C289.7,93.86,292.49,93,292.49,90.73z"/>
			<path d="M306.22,86.66h3.32v0.78h-0.78v12.03H307l-6.91-10.17v9.47h0.78v0.78h-3.32v-0.78h0.78V86.66h1.77L307,96.67v-9.24h-0.78
				V86.66z"/>
			<path d="M311.62,86.68h3.32v0.78h-0.78v11.31h0.78v0.78h-3.32v-0.78h0.78V87.45h-0.78V86.68z"/>
			<path d="M327.36,85.86v2.74h-0.78v-0.78h-3.49v11.74l-1.8-0.02V87.82h-3.49v0.78h-0.78v-2.74h0.78v0.8h8.79v-0.8H327.36z"/>
			<path d="M332.76,87.43h-0.78v6.46c0.08,2.46,0.85,4.38,3.37,4.38c2.87,0,3.45-1.9,3.45-4.38v-6.46h-0.78v-0.78h3.32v0.78h-0.78
				v6.46c-0.1,3.71-1.53,5.65-5.07,5.65c-3.78,0-5.3-2.33-5.3-5.65v-6.46h-0.78v-0.78h3.32V87.43z"/>
			<path d="M350.34,98.76h0.78l-3.2-4.4c-0.68,0.06-1.34,0.06-1.96,0.06l-0.02,4.35h0.78v0.78h-3.28v-0.78h0.76V86.73
				c0.6,0,1.51-0.02,2.13-0.02c1.45,0,2.21,0.04,3.24,0.35c1.65,0.48,3.01,1.96,3.01,3.4c0,2.15-1.28,3.14-2.87,3.59l3.37,4.71h0.8
				v0.78h-3.53V98.76z M350.91,90.73c0-2.42-2.56-3.24-4.91-2.79l-0.04,5.12C348.11,93.86,350.91,93,350.91,90.73z"/>
			<path d="M363.33,88.33v-0.78c-2.99-0.02-3.82,0.02-5.22,0.02l-0.02,4.91l2.66,0.02v-0.78h0.78v2.48h-0.78v-0.78
				c-0.78-0.02-1.67-0.02-2.66-0.02l-0.02,5.08h5.26v-0.78h0.78v2.62h-0.78v-0.78c-1.09-0.02-3.45-0.02-6.98-0.02V86.62
				c1.61,0,4.95-0.02,6.98-0.02v-0.76h0.78v2.48H363.33z"/>
			<path d="M366.38,99.52v-1.9h1.96v1.9H366.38z"/>
		</g>
	</g>
</g>
</svg>
