<svg id="Layer_1" data-name="Layer 1" xmlns="http://www.w3.org/2000/svg" viewBox="0 0 500 457.04"><defs><style>.cls-1{fill:#ffc50a;}.cls-2{opacity:0.3;}.cls-3{fill:#fff;}.cls-4,.cls-5,.cls-6,.cls-7{fill:none;stroke:#000;stroke-linecap:round;stroke-miterlimit:10;stroke-width:2px;}.cls-5{stroke-dasharray:3.99 3.99;}.cls-6{stroke-dasharray:3.99 3.99;}.cls-7{stroke-dasharray:4 4;}.cls-8{fill:#231f20;}</style></defs><title>eye4labs-logo</title><path class="cls-1" d="M500,62.91V394.12a62.91,62.91,0,0,1-69.87,62.52L28,411.88A31.46,31.46,0,0,1,0,380.62V76.42A31.45,31.45,0,0,1,28,45.16L430.13.39A62.92,62.92,0,0,1,500,62.91Z"/><g class="cls-2"><path class="cls-3" d="M270.06,116.16c-126.82,0-208.85,129.3-208.85,129.3s82,129.29,208.85,129.29S478.92,245.46,478.92,245.46,396.88,116.16,270.06,116.16Zm0,218.93a89.63,89.63,0,1,1,89.64-89.63A89.64,89.64,0,0,1,270.06,335.09Z"/></g><path class="cls-3" d="M33.41,98H88.25V116.2H51.78V156h31.8v18.16H51.78V214H88.25v19.28H33.41Z"/><path class="cls-3" d="M119.62,176.14,94.29,98h19.49l14.82,53.68H129L143.77,98h19.49L138,176.12v57.13H119.62Z"/><path class="cls-3" d="M171.06,98h54.85V116.2H189.43V156h31.8v18.16h-31.8V214h36.48v19.28H171.06Z"/><path class="cls-4" d="M61.21,245.46s.37.58,1.09,1.67"/><path class="cls-5" d="M64.56,250.41c16.58,23.7,93.61,124.34,205.5,124.34,114.69,0,192.76-105.74,206.64-126"/><path class="cls-4" d="M477.83,247.13c.72-1.09,1.09-1.67,1.09-1.67s-.37-.58-1.09-1.67"/><path class="cls-6" d="M475.57,240.51c-16.38-23.41-91.78-121.95-201.5-124.3"/><path class="cls-4" d="M272.06,116.17h-2"/><polygon points="57.85 255.44 59.82 255.8 61.62 246.11 71.16 248.61 71.66 246.67 60.04 243.63 57.85 255.44"/><path class="cls-7" d="M180.44,245.46a89.63,89.63,0,0,1,179.26,0"/><polygon points="351.51 238.83 352.98 237.46 359.69 244.69 366.41 237.46 367.87 238.83 359.69 247.62 351.51 238.83"/><path class="cls-3" d="M279.4,209.15H240.67V190l28-102.2h20.65L260.11,190H279.4V149.34h19.37V190h9.31v19.14h-9.31v21.23H279.4Z"/><path class="cls-8" d="M33.76,240.61H52.13v113.8H88.61v18.93H33.76Z"/><path class="cls-8" d="M123.25,240.61h15.36l28.68,132.73H148.85l-5.38-28.5H118.31l-5.38,28.5H94.48ZM131,278.83h-.35L121.58,327H140Z"/><path class="cls-8" d="M178.6,240.61h26.9q17.72.18,25.48,10.1,7.23,9.84,7.23,23.49V279q0,10.2-3.18,15.66a28.2,28.2,0,0,1-9.84,8.92q13,6,13,26.13v7.47q.36,35.78-34.48,36.14H178.6ZM197,295.06h8.34q9.15,0,12.61-4.84,3-4.94,3-13.88t-3.37-13.43c-2.43-3-6.74-4.47-13-4.47H197Zm0,59.35h8q10.74,0,13.67-6.39a21.76,21.76,0,0,0,2.12-7.21q.18-3.92.18-8.85.27-10-2.66-15.06-3.28-5.11-13.13-5.11H197Z"/><path class="cls-8" d="M317.6,278.78H299.22V274.5a21.48,21.48,0,0,0-2.9-11.59q-3-4.29-10-4.47-7.4.18-9.94,5.19a26.06,26.06,0,0,0-2.54,11.94q-.19,7.29,1.84,11,1.93,3.91,8.61,6.65l14.07,5.83q11.86,4.46,15.82,13,3.61,8.83,3.43,23.32,0,17.24-6.87,27.79-7.23,11-24.85,11.21-13.56-.18-22.2-9.09-9.06-8.73-9.25-22.36v-7.09h18.38v6a15.09,15.09,0,0,0,3.09,9.31q2.91,4.29,10,4.28,9.19,0,11.58-5.55a14.59,14.59,0,0,0,1.59-6.2c.12-2.37.17-5,.17-8q0-10.2-1.76-13.94-2.2-3.74-8.9-6.19L275.44,310q-11.55-5.1-15.86-13.49t-4.14-20.68q0-15.5,7.92-26,7.92-10.2,23.6-10.39,14.09.19,22.36,9.27a30.87,30.87,0,0,1,8.28,20.61Z"/></svg>