<?xml version="1.0" encoding="utf-8"?>
<!-- Generator: Adobe Illustrator 24.1.3, SVG Export Plug-In . SVG Version: 6.00 Build 0)  -->
<svg version="1.1" id="Layer_1" xmlns="http://www.w3.org/2000/svg" xmlns:xlink="http://www.w3.org/1999/xlink" x="0px" y="0px"
	 viewBox="0 0 390 277" style="enable-background:new 0 0 390 277;" xml:space="preserve">
<g>
	<g>
		<path d="M7.77,2.54h50.61c37.03,0,55.55,21.5,55.55,64.5c0,12.76-2.01,23.71-6.02,32.87c-4.01,9.16-11.06,16.51-21.14,22.06
			l33.95,100.29H87.39l-29.32-93.81H39.24v93.81H7.77V2.54z M39.24,100.67h17.9c5.55,0,9.98-0.77,13.27-2.31
			c3.29-1.54,5.81-3.75,7.56-6.63c1.74-2.88,2.93-6.43,3.55-10.65c0.62-4.21,0.92-9.1,0.92-14.66s-0.31-10.44-0.92-14.66
			c-0.62-4.21-1.91-7.82-3.86-10.8c-1.96-2.98-4.68-5.19-8.18-6.63c-3.5-1.44-8.13-2.16-13.89-2.16H39.24V100.67z"/>
		<path d="M128.12,2.54h31.48v219.72h-31.48V2.54z"/>
		<path d="M279.95,65.8h-31.48v-7.1c0-7.2-1.7-13.42-5.09-18.67c-3.39-5.25-9.1-7.87-17.13-7.87c-4.32,0-7.87,0.83-10.65,2.47
			c-2.78,1.65-4.94,3.76-6.48,6.33c-1.54,2.58-2.62,5.55-3.24,8.95c-0.62,3.39-0.93,6.94-0.93,10.65c0,4.32,0.15,7.97,0.46,10.96
			c0.31,2.98,1.08,5.55,2.31,7.72c1.23,2.16,3.03,4.06,5.4,5.71c2.36,1.65,5.6,3.29,9.72,4.94l24.07,9.57
			c6.99,2.68,12.65,5.82,16.97,9.41c4.32,3.6,7.66,7.82,10.03,12.65c2.36,4.84,3.96,10.39,4.78,16.66
			c0.82,6.28,1.24,13.42,1.24,21.45c0,9.26-0.93,17.85-2.78,25.77c-1.85,7.92-4.89,14.71-9.1,20.37
			c-4.22,5.66-9.83,10.13-16.82,13.42c-7,3.29-15.54,4.94-25.61,4.94c-7.61,0-14.71-1.34-21.29-4.01
			c-6.59-2.67-12.24-6.33-16.97-10.95c-4.74-4.63-8.49-10.13-11.26-16.51c-2.78-6.37-4.17-13.27-4.17-20.67v-11.73h31.48v9.88
			c0,5.76,1.7,10.96,5.09,15.58c3.39,4.63,9.1,6.94,17.13,6.94c5.35,0,9.51-0.77,12.5-2.31c2.98-1.54,5.25-3.7,6.79-6.48
			c1.54-2.78,2.52-6.22,2.93-10.34c0.41-4.11,0.62-8.64,0.62-13.58c0-5.76-0.21-10.49-0.62-14.2c-0.42-3.7-1.29-6.68-2.62-8.95
			c-1.34-2.26-3.19-4.11-5.55-5.56c-2.37-1.44-5.51-2.98-9.41-4.63l-22.53-9.26c-13.58-5.55-22.68-12.91-27.31-22.06
			c-4.63-9.15-6.94-20.62-6.94-34.41c0-8.23,1.13-16.05,3.39-23.45c2.26-7.41,5.6-13.78,10.03-19.13
			c4.42-5.35,10.03-9.61,16.82-12.81c6.79-3.19,14.71-4.78,23.76-4.78c7.82,0,14.97,1.44,21.45,4.32
			c6.48,2.88,12.04,6.69,16.66,11.42c4.63,4.73,8.18,10.03,10.65,15.89c2.47,5.86,3.7,11.88,3.7,18.05V65.8z"/>
		<path d="M291.36,2.54h93.81v29.62h-62.34v64.5h54.31v29.62h-54.31v64.5h62.34v31.48h-93.81V2.54z"/>
	</g>
	<g>
		<g>
			<path d="M90.04,275.49v-43.75h18.75c1.72,0,3.19,0.62,4.4,1.85c1.23,1.21,1.85,2.67,1.85,4.4v12.5c0,1.76-0.62,3.24-1.85,4.44
				c-1.21,1.2-2.68,1.8-4.4,1.8h-3.12l9.38,18.75h-6.25l-9.38-18.75h-3.13v18.75H90.04z M108.79,250.49v-12.5h-12.5v12.5H108.79z"/>
			<path d="M127.53,275.49c-1.75,0-3.23-0.6-4.44-1.81c-1.2-1.2-1.8-2.69-1.8-4.44v-31.25c0-1.72,0.6-3.19,1.8-4.4
				c1.21-1.23,2.69-1.85,4.44-1.85h12.5c1.72,0,3.19,0.62,4.39,1.85c1.24,1.21,1.86,2.67,1.86,4.4v31.25c0,1.75-0.62,3.24-1.86,4.44
				c-1.2,1.21-2.67,1.81-4.39,1.81H127.53z M140.04,269.24v-31.25h-12.5v31.25H140.04z"/>
			<path d="M152.53,275.49v-43.75h18.75c1.72,0,3.19,0.62,4.39,1.85c1.24,1.21,1.86,2.67,1.86,4.4v9.38c0,1.76-0.62,3.24-1.86,4.45
				c-0.1,0.1-0.2,0.18-0.29,0.24c0.1,0.1,0.19,0.2,0.29,0.29c1.24,1.21,1.86,2.67,1.86,4.39v12.5c0,1.75-0.62,3.24-1.86,4.44
				c-1.2,1.21-2.67,1.81-4.39,1.81H152.53z M171.29,269.24v-12.5h-12.5v12.5H171.29z M171.29,250.49v-12.5h-12.5v12.5H171.29z"/>
			<path d="M190.04,275.49c-1.76,0-3.24-0.6-4.45-1.81c-1.2-1.2-1.81-2.69-1.81-4.44v-31.25c0-1.72,0.6-3.19,1.81-4.4
				c1.2-1.23,2.69-1.85,4.45-1.85h12.5c1.73,0,3.19,0.62,4.4,1.85c1.23,1.21,1.86,2.67,1.86,4.4v31.25c0,1.75-0.62,3.24-1.86,4.44
				c-1.2,1.21-2.67,1.81-4.4,1.81H190.04z M202.53,269.24v-31.25h-12.5v31.25H202.53z"/>
			<path d="M221.29,275.49v-37.5h-9.38v-6.25h25v6.25h-9.38v37.5H221.29z"/>
			<path d="M243.16,275.49v-37.5c0-1.72,0.61-3.19,1.81-4.4c1.2-1.23,2.69-1.85,4.45-1.85h12.49c1.73,0,3.2,0.62,4.4,1.85
				c1.24,1.21,1.86,2.67,1.86,4.4v37.5h-6.25v-18.75h-12.49v18.75H243.16z M261.91,250.49v-12.5h-12.49v12.5H261.91z"/>
			<path d="M274.41,275.49v-43.75h18.75c1.73,0,3.2,0.62,4.4,1.85c1.24,1.21,1.85,2.67,1.85,4.4v12.5c0,1.76-0.62,3.24-1.85,4.44
				c-1.2,1.2-2.67,1.8-4.4,1.8h-3.13l9.38,18.75h-6.25l-9.37-18.75h-3.13v18.75H274.41z M293.16,250.49v-12.5h-12.5v12.5H293.16z"/>
			<path d="M305.66,275.49v-6.25h6.25v-31.25h-6.25v-6.25h18.75v6.25h-6.25v31.25h6.25v6.25H305.66z"/>
			<path d="M330.66,275.49v-37.5c0-1.72,0.61-3.19,1.81-4.4c1.2-1.23,2.69-1.85,4.45-1.85h12.5c1.73,0,3.19,0.62,4.4,1.85
				c1.24,1.21,1.85,2.67,1.85,4.4v37.5h-6.25v-18.75h-12.5v18.75H330.66z M349.41,250.49v-12.5h-12.5v12.5H349.41z"/>
			<path d="M368.16,275.49v-37.5h-9.38v-6.25h25v6.25h-9.37v37.5H368.16z"/>
		</g>
		<g>
			<g>
				<path d="M4.44,249.17c0-0.9,0.06-1.72,0.18-2.48c0.11-0.75,0.33-1.42,0.65-2c0.52-0.95,1.28-1.72,2.26-2.3
					c0.98-0.58,2.16-0.87,3.51-0.87c1.36,0,2.53,0.29,3.52,0.87c0.99,0.58,1.74,1.35,2.26,2.3c0.32,0.58,0.54,1.25,0.65,2
					c0.12,0.76,0.17,1.58,0.17,2.48v7.25c0,0.9-0.05,1.72-0.17,2.47c-0.12,0.75-0.34,1.42-0.65,2c-0.52,0.95-1.27,1.72-2.26,2.3
					c-0.99,0.58-2.16,0.87-3.52,0.87c-1.36,0-2.53-0.29-3.51-0.87c-0.98-0.58-1.74-1.35-2.26-2.3c-0.32-0.58-0.53-1.25-0.65-2
					c-0.12-0.75-0.18-1.58-0.18-2.47V249.17z M8.86,257.12c0,0.84,0.19,1.47,0.58,1.89c0.4,0.42,0.92,0.63,1.59,0.63
					c0.67,0,1.2-0.21,1.59-0.63c0.4-0.42,0.59-1.05,0.59-1.89v-8.64c0-0.84-0.19-1.47-0.59-1.89c-0.39-0.42-0.92-0.63-1.59-0.63
					c-0.67,0-1.19,0.21-1.59,0.63c-0.39,0.41-0.58,1.05-0.58,1.89V257.12z"/>
				<path d="M21.45,245.26h-2.17v-3.47h2.17v-2.99c0-1.07,0.16-1.98,0.48-2.71c0.32-0.74,0.75-1.35,1.28-1.83
					c0.54-0.48,1.14-0.83,1.82-1.04c0.68-0.21,1.38-0.32,2.1-0.32h2.04v4.17h-2c-0.87,0-1.3,0.5-1.3,1.52v3.21h3.3v3.47h-3.3v18.54
					h-4.43V245.26z"/>
				<path d="M38.6,235.11h4.43v6.68h2.74v3.47h-2.74v12.2c0,0.52,0.05,0.93,0.15,1.21c0.1,0.29,0.26,0.5,0.48,0.65
					c0.22,0.14,0.5,0.23,0.84,0.26c0.35,0.03,0.77,0.04,1.26,0.04v4.17h-1.83c-1.02,0-1.86-0.16-2.54-0.47
					c-0.68-0.32-1.22-0.73-1.62-1.22c-0.41-0.49-0.7-1.05-0.89-1.67c-0.19-0.62-0.28-1.22-0.28-1.8v-13.37h-2.22v-3.47h2.22V235.11z
					"/>
				<path d="M47.46,232.89h4.43v11.02h0.09c0.46-0.7,1.02-1.27,1.67-1.71c0.65-0.45,1.48-0.67,2.5-0.67c0.55,0,1.1,0.1,1.65,0.28
					c0.55,0.19,1.04,0.5,1.47,0.93c0.43,0.43,0.78,0.99,1.04,1.67c0.26,0.68,0.39,1.51,0.39,2.5v16.89h-4.43v-15.24
					c0-0.81-0.19-1.45-0.57-1.91c-0.38-0.46-0.91-0.7-1.61-0.7c-0.84,0-1.42,0.26-1.74,0.78c-0.32,0.52-0.47,1.27-0.47,2.26v14.8
					h-4.43V232.89z"/>
				<path d="M68.38,254.47v3c0,0.7,0.19,1.23,0.59,1.6c0.39,0.38,0.92,0.56,1.59,0.56c0.84,0,1.39-0.25,1.67-0.74
					c0.27-0.49,0.44-0.98,0.5-1.48h4.43c0,0.93-0.16,1.8-0.46,2.61c-0.3,0.81-0.74,1.5-1.32,2.08c-0.58,0.61-1.27,1.09-2.09,1.44
					c-0.81,0.35-1.72,0.52-2.73,0.52c-1.36,0-2.53-0.29-3.52-0.87c-0.98-0.58-1.74-1.35-2.25-2.3c-0.32-0.58-0.54-1.25-0.65-2
					c-0.12-0.75-0.18-1.58-0.18-2.47v-7.25c0-0.9,0.06-1.72,0.18-2.48c0.12-0.75,0.33-1.42,0.65-2c0.52-0.95,1.27-1.72,2.25-2.3
					c0.99-0.58,2.16-0.87,3.52-0.87c1.01,0,1.93,0.17,2.75,0.52c0.83,0.35,1.52,0.83,2.08,1.46c0.56,0.62,1,1.35,1.3,2.19
					c0.3,0.84,0.46,1.74,0.46,2.69v6.08H68.38z M68.38,250.99h4.34v-2.51c0-0.84-0.19-1.47-0.58-1.89
					c-0.39-0.42-0.92-0.63-1.58-0.63c-0.67,0-1.2,0.21-1.59,0.63c-0.4,0.41-0.59,1.05-0.59,1.89V250.99z"/>
			</g>
		</g>
	</g>
</g>
</svg>
