<?xml version="1.0" encoding="utf-8"?>
<!-- Generator: Adobe Illustrator 24.1.3, SVG Export Plug-In . SVG Version: 6.00 Build 0)  -->
<svg version="1.1" id="Layer_1" xmlns="http://www.w3.org/2000/svg" xmlns:xlink="http://www.w3.org/1999/xlink" x="0px" y="0px"
	 viewBox="0 0 390 98" style="enable-background:new 0 0 390 98;" xml:space="preserve">
<g>
	<g>
		<path d="M25.39,50.29c-3.32,3.2-6.07,5.47-8.26,6.82c-2.19,1.34-4.17,2.01-5.95,2.01c-2.64,0-4.74-0.97-6.32-2.92
			c-1.58-1.95-2.37-4.55-2.37-7.8c0-3.04,0.59-6.02,1.77-8.95c1.17-2.93,2.85-5.61,5.04-8.03c2.47-2.73,5.29-4.88,8.47-6.46
			c3.18-1.58,6.25-2.37,9.22-2.37c1.26,0,2.44,0.17,3.55,0.5c1.1,0.33,2.19,0.85,3.25,1.53l7.94-1.96
			c-1.66,8.55-2.81,14.63-3.43,18.25c-0.63,3.62-0.95,5.87-0.95,6.74c0,0.76,0.14,1.34,0.41,1.74c0.27,0.4,0.65,0.61,1.12,0.61
			c0.57,0,1.7-0.64,3.38-1.92c0.4-0.31,0.71-0.55,0.92-0.71l1.18,3.88l-2.71,2.24c-2.16,1.81-4.16,3.19-6,4.17
			c-1.84,0.97-3.34,1.46-4.5,1.46c-1.9,0-3.36-0.57-4.38-1.71c-1.02-1.14-1.53-2.75-1.53-4.84c0-0.28,0.04-0.86,0.11-1.74
			C25.38,50.59,25.39,50.41,25.39,50.29z M25.93,45.06c0.52-2.63,1.02-5.21,1.49-7.72c0.48-2.51,0.93-4.95,1.35-7.3
			c-0.74-0.5-1.4-0.85-1.99-1.07c-0.59-0.21-1.17-0.32-1.74-0.32c-2.54,0-4.86,1.82-6.98,5.45c-2.11,3.63-3.17,7.69-3.17,12.18
			c0,1.43,0.24,2.5,0.71,3.22c0.47,0.72,1.16,1.09,2.07,1.09c0.64,0,1.66-0.47,3.06-1.41C22.13,48.23,23.86,46.86,25.93,45.06z"/>
		<path d="M67.68,51.18l-2.32,1.88c-2.46,1.99-4.66,3.51-6.56,4.56c-1.91,1.05-3.47,1.57-4.68,1.57c-1.81,0-3.29-0.71-4.45-2.12
			c-1.16-1.41-1.74-3.26-1.74-5.54c0-1.52,0.56-4.81,1.68-9.86c0.71-3.3,1.26-5.92,1.63-7.87l1-5.45c0.29-1.47,0.67-3.45,1.18-5.94
			c1.26-6.48,1.89-10.26,1.89-11.35c0-1.02-0.23-1.74-0.68-2.16c-0.45-0.42-1.25-0.63-2.39-0.63c-0.33,0-0.96,0.05-1.88,0.14
			c-0.1,0-0.17,0.01-0.22,0.04l-0.21-3.95c3.32-0.19,6.61-0.47,9.85-0.84C63,3.31,66.18,2.85,69.29,2.3
			c-0.76,3.94-1.81,9.27-3.14,15.98c-3.58,18.3-5.37,28.2-5.37,29.69c0,0.52,0.16,0.99,0.5,1.4c0.33,0.42,0.72,0.62,1.17,0.62
			c0.31,0,0.76-0.14,1.36-0.41c0.59-0.27,1.11-0.6,1.56-0.98l1.25-1.1L67.68,51.18z"/>
		<path d="M94.06,50.29c-3.32,3.2-6.08,5.47-8.26,6.82c-2.18,1.34-4.17,2.01-5.95,2.01c-2.63,0-4.74-0.97-6.32-2.92
			c-1.58-1.95-2.36-4.55-2.36-7.8c0-3.04,0.58-6.02,1.76-8.95c1.18-2.93,2.85-5.61,5.04-8.03c2.47-2.73,5.29-4.88,8.47-6.46
			c3.18-1.58,6.25-2.37,9.22-2.37c1.26,0,2.44,0.17,3.54,0.5c1.1,0.33,2.19,0.85,3.26,1.53l7.94-1.96
			c-1.66,8.55-2.81,14.63-3.44,18.25c-0.63,3.62-0.95,5.87-0.95,6.74c0,0.76,0.14,1.34,0.41,1.74c0.28,0.4,0.65,0.61,1.12,0.61
			c0.57,0,1.69-0.64,3.38-1.92c0.4-0.31,0.71-0.55,0.93-0.71l1.18,3.88l-2.71,2.24c-2.16,1.81-4.16,3.19-5.99,4.17
			c-1.84,0.97-3.34,1.46-4.51,1.46c-1.9,0-3.35-0.57-4.37-1.71c-1.02-1.14-1.53-2.75-1.53-4.84c0-0.28,0.04-0.86,0.11-1.74
			C94.05,50.59,94.06,50.41,94.06,50.29z M94.6,45.06c0.52-2.63,1.02-5.21,1.5-7.72c0.47-2.51,0.92-4.95,1.35-7.3
			c-0.74-0.5-1.4-0.85-1.99-1.07c-0.6-0.21-1.17-0.32-1.74-0.32c-2.54,0-4.86,1.82-6.98,5.45c-2.12,3.63-3.17,7.69-3.17,12.18
			c0,1.43,0.24,2.5,0.72,3.22c0.47,0.72,1.16,1.09,2.06,1.09c0.64,0,1.66-0.47,3.06-1.41C90.8,48.23,92.53,46.86,94.6,45.06z"/>
		<path d="M115.14,58.76c0.69-3.18,1.39-6.63,2.12-10.34c0.72-3.71,1.7-8.87,2.94-15.47l1.07-6.12c1.11-5.98,1.82-9.92,2.12-11.8
			c0.3-1.88,0.44-3.16,0.44-3.83c0-1.14-0.22-1.92-0.66-2.35c-0.44-0.43-1.24-0.64-2.4-0.64c-0.4,0-0.78,0.01-1.12,0.04
			c-0.35,0.02-0.69,0.06-1.05,0.1l-0.21-3.84c3.25-0.14,6.49-0.4,9.72-0.78c3.23-0.38,6.44-0.88,9.64-1.5
			c-0.64,3.66-1.37,7.55-2.21,11.68c-0.83,4.13-1.28,6.4-1.35,6.8l-1.89,10.32c0.4-0.33,0.99-0.81,1.74-1.43
			c5.7-4.67,9.78-7.01,12.25-7.01c2.21,0,4.13,0.86,5.77,2.58c1.64,1.72,2.46,3.81,2.46,6.25c0,2.63-0.9,4.9-2.7,6.8
			c-1.8,1.9-4.38,3.28-7.72,4.13c2.68,3.82,4.55,6.25,5.61,7.28c1.06,1.03,2.01,1.55,2.86,1.55c0.41,0,0.93-0.17,1.58-0.52
			c0.65-0.34,1.61-0.97,2.87-1.9l1.32,3.35c-2.59,2.44-4.87,4.25-6.85,5.41c-1.98,1.16-3.76,1.74-5.32,1.74
			c-2.23,0-4.34-1.04-6.34-3.13c-1.99-2.09-4.03-5.42-6.12-10c-0.57,0.14-1.18,0.26-1.83,0.34c-0.65,0.08-1.38,0.15-2.19,0.2
			l-0.43,2.46c-0.24,1.37-0.45,2.65-0.62,3.83c-0.18,1.18-0.34,2.38-0.48,3.61L115.14,58.76z M130.48,42.42
			c3.8-0.07,6.89-0.89,9.29-2.46c2.39-1.56,3.6-3.52,3.6-5.87c0-0.97-0.27-1.75-0.8-2.33c-0.53-0.58-1.24-0.87-2.12-0.87
			c-1.11,0-3.38,1.21-6.8,3.63c-0.9,0.64-1.6,1.14-2.1,1.5L130.48,42.42z"/>
		<path d="M183.77,50.29c-3.32,3.2-6.07,5.47-8.26,6.82c-2.18,1.34-4.16,2.01-5.94,2.01c-2.64,0-4.74-0.97-6.32-2.92
			c-1.58-1.95-2.36-4.55-2.36-7.8c0-3.04,0.59-6.02,1.76-8.95c1.17-2.93,2.86-5.61,5.04-8.03c2.47-2.73,5.3-4.88,8.48-6.46
			c3.18-1.58,6.25-2.37,9.22-2.37c1.26,0,2.44,0.17,3.54,0.5c1.1,0.33,2.19,0.85,3.25,1.53l7.94-1.96
			c-1.66,8.55-2.81,14.63-3.44,18.25c-0.63,3.62-0.94,5.87-0.94,6.74c0,0.76,0.13,1.34,0.41,1.74c0.27,0.4,0.65,0.61,1.12,0.61
			c0.57,0,1.7-0.64,3.38-1.92c0.4-0.31,0.71-0.55,0.92-0.71l1.18,3.88l-2.7,2.24c-2.16,1.81-4.16,3.19-6,4.17
			c-1.84,0.97-3.34,1.46-4.5,1.46c-1.9,0-3.36-0.57-4.38-1.71c-1.02-1.14-1.53-2.75-1.53-4.84c0-0.28,0.03-0.86,0.11-1.74
			C183.76,50.59,183.77,50.41,183.77,50.29z M184.31,45.06c0.52-2.63,1.02-5.21,1.5-7.72c0.47-2.51,0.92-4.95,1.35-7.3
			c-0.74-0.5-1.4-0.85-1.99-1.07c-0.6-0.21-1.18-0.32-1.74-0.32c-2.54,0-4.87,1.82-6.98,5.45c-2.11,3.63-3.17,7.69-3.17,12.18
			c0,1.43,0.23,2.5,0.71,3.22c0.48,0.72,1.16,1.09,2.07,1.09c0.64,0,1.66-0.47,3.06-1.41C180.51,48.23,182.24,46.86,184.31,45.06z"
			/>
		<path d="M238.63,19.92c-0.02,0.26-0.04,0.59-0.05,0.98c-0.01,0.4-0.02,0.96-0.02,1.69c0,1.54,0.07,3.01,0.2,4.4
			c0.13,1.39,0.33,2.74,0.59,4.04l-4.06,0.6c-0.19-2.85-1.06-4.94-2.62-6.26c-1.55-1.33-3.9-2-7.03-2c-2.25,0-4.07,0.42-5.44,1.26
			c-1.38,0.84-2.07,1.95-2.07,3.33c0,2.18,2.73,3.86,8.19,5.02c0.5,0.09,0.89,0.18,1.17,0.25c4.8,1,8.24,2.4,10.33,4.2
			c2.09,1.8,3.14,4.24,3.14,7.3c0,4.3-1.81,7.74-5.43,10.34c-3.62,2.6-8.51,3.9-14.68,3.9c-2.42,0-4.72-0.2-6.89-0.59
			c-2.17-0.39-4.22-0.98-6.14-1.76c0.07-1.24,0.12-2.25,0.16-3.04c0.04-0.79,0.05-1.4,0.05-1.83c0-0.83-0.05-1.76-0.16-2.77
			c-0.11-1.02-0.33-2.58-0.66-4.67l4.38-0.78c0.64,3.63,1.77,6.23,3.4,7.78c1.63,1.55,3.99,2.33,7.11,2.33
			c2.58,0,4.64-0.45,6.18-1.35c1.53-0.9,2.29-2.12,2.29-3.67c0-2.23-2.54-3.93-7.62-5.09c-0.95-0.24-1.67-0.42-2.18-0.53
			c-4.81-1.16-8.18-2.62-10.09-4.38c-1.91-1.76-2.86-4.15-2.86-7.19c0-4.11,1.72-7.39,5.14-9.86c3.43-2.46,8.03-3.7,13.8-3.7
			c2.25,0,4.37,0.17,6.34,0.5C235.04,18.69,236.89,19.21,238.63,19.92z"/>
		<path d="M240.87,57.8v-3.35c0.48,0.05,0.83,0.08,1.07,0.1c0.24,0.03,0.44,0.04,0.6,0.04c1.59,0,2.67-0.5,3.24-1.5
			c0.57-1,0.85-3.32,0.85-6.98v-5.09v-1.46v-3.48c0-0.81,0.01-1.86,0.04-3.15c0.02-1.3,0.04-2.19,0.04-2.69
			c0-3.32-0.27-5.47-0.8-6.46c-0.53-0.98-1.54-1.48-3.01-1.48c-0.35,0-0.63,0.01-0.84,0.02c-0.2,0.01-0.39,0.02-0.55,0.02V19
			c2.07,0.1,4.02,0.17,5.88,0.23c1.85,0.06,3.49,0.09,4.91,0.09c1.47,0,3.14-0.03,5-0.09c1.86-0.06,3.85-0.14,5.96-0.23v3.38
			c-0.17,0-0.38-0.01-0.63-0.04c-0.25-0.02-0.41-0.03-0.48-0.03c-1.66,0-2.78,0.4-3.36,1.19c-0.58,0.79-0.87,2.58-0.87,5.36
			c0,0.45,0.01,1.29,0.04,2.51c0.02,1.22,0.03,2.21,0.03,2.97l0.07,17.77c1.43,0.12,2.76,0.21,4.01,0.27
			c1.25,0.06,2.42,0.09,3.51,0.09c3.16,0,5.41-0.5,6.76-1.49c1.35-1,2.5-2.9,3.45-5.7l3.56,1c-0.54,1.71-1.06,3.51-1.55,5.39
			c-0.49,1.89-0.97,3.93-1.44,6.14c-6.46-0.21-11.05-0.35-13.78-0.41c-2.73-0.06-5.01-0.09-6.83-0.09c-2,0-4.16,0.04-6.48,0.11
			C246.95,57.48,244.15,57.61,240.87,57.8z"/>
		<path d="M279.57,54.46h0.5c2.73,0,5-2,6.8-6.02c0.19-0.41,0.33-0.71,0.43-0.93l6.05-13.1c2.06-4.44,3.6-7.8,4.61-10.09
			c1.01-2.29,1.81-4.23,2.4-5.82h10.18c1.33,4.01,3.17,8.8,5.52,14.38c0.71,1.66,1.21,2.85,1.49,3.56l4.95,12.46
			c0.1,0.21,0.21,0.5,0.36,0.86c1.23,3.13,3.06,4.7,5.48,4.7h0.75v3.35c-2.44-0.14-4.61-0.25-6.5-0.32c-1.89-0.07-3.5-0.1-4.82-0.1
			c-1.21,0-2.76,0.04-4.65,0.1c-1.88,0.07-4.1,0.18-6.64,0.32v-3.35h0.5c1.52,0,2.61-0.2,3.26-0.61c0.65-0.4,0.98-1.05,0.98-1.96
			c0-0.21-0.05-0.52-0.16-0.91c-0.11-0.39-0.28-0.9-0.52-1.51l-1.46-3.7c-1.12-0.02-2.28-0.04-3.47-0.05
			c-1.2-0.01-2.85-0.02-4.97-0.02c-0.81,0-1.71,0.01-2.7,0.02c-1,0.01-2.06,0.03-3.2,0.05l-0.04,0.07
			c-1.37,3.02-2.06,4.96-2.06,5.84c0,1,0.31,1.7,0.93,2.1c0.62,0.41,1.76,0.63,3.42,0.68v3.35c-0.73-0.05-1.76-0.1-3.06-0.18
			c-2.85-0.16-4.74-0.25-5.67-0.25c-0.97,0-2.88,0.09-5.73,0.27c-1.26,0.08-2.24,0.13-2.95,0.16V54.46z M296.84,40.29
			c1.09,0,2.28,0.02,3.56,0.07c0.35,0.02,0.58,0.04,0.67,0.04c0.98,0,1.95-0.01,2.94-0.04c0.98-0.02,2-0.05,3.04-0.07l-4.66-12.96
			L296.84,40.29z"/>
		<path d="M358.49,41.53l5.88-13.17l0.28-0.6c1.88-4.13,2.83-7.05,2.85-8.76c0.48,0.02,1.15,0.06,2.03,0.11
			c3.16,0.15,5.31,0.22,6.45,0.22c1.78,0,4.77-0.08,8.97-0.25c0.47-0.02,0.84-0.05,1.1-0.07v3.38c-2.28,0-3.74,0.23-4.38,0.7
			c-0.64,0.46-0.96,1.39-0.96,2.79c0,0.53,0.04,1.58,0.14,3.17c0.09,1.59,0.22,3.32,0.39,5.2l0.36,4.84
			c0.09,1.31,0.21,3.04,0.36,5.2c0.4,6.83,1.81,10.25,4.23,10.25c0.31,0,0.56,0,0.75-0.02c0.18-0.01,0.36-0.03,0.53-0.05l0.04,3.35
			c-2.42-0.14-4.58-0.25-6.48-0.32c-1.9-0.07-3.49-0.1-4.77-0.1c-1.19,0-3.62,0.08-7.29,0.25c-1.42,0.07-2.53,0.13-3.32,0.18
			l-0.03-3.35h1.1c1.71,0,2.86-0.28,3.47-0.86c0.61-0.57,0.91-1.67,0.91-3.31c0-0.48-0.01-0.84-0.02-1.09
			c-0.01-0.25-0.03-0.49-0.05-0.73l-1.18-19.05l-9.54,21.22c-1,2.25-1.66,3.84-2,4.77c-0.33,0.92-0.57,1.72-0.71,2.38h-5.02
			c-0.16-1.47-2.39-7.56-6.69-18.26c-1.64-4.1-2.93-7.34-3.88-9.72l-2.07,18.97c-0.02,0.24-0.04,0.49-0.05,0.77
			c-0.01,0.28-0.02,0.64-0.02,1.09c0,1.47,0.3,2.47,0.91,3.01c0.61,0.53,1.77,0.8,3.47,0.8h0.53l-0.04,3.35
			c-0.57-0.02-1.4-0.07-2.49-0.14c-3.04-0.19-5.09-0.29-6.16-0.29c-0.74,0-2.28,0.07-4.63,0.21c-1.35,0.1-2.41,0.17-3.17,0.21v-3.35
			c0.19,0.02,0.37,0.04,0.55,0.05c0.18,0.01,0.43,0.02,0.77,0.02c2.49,0,4.08-3.2,4.77-9.61c0.21-1.99,0.39-3.58,0.53-4.77
			l0.82-6.27c0.28-2.23,0.5-4.06,0.64-5.48c0.15-1.42,0.21-2.41,0.21-2.95c0-1.19-0.25-2.01-0.75-2.46
			c-0.49-0.45-1.43-0.68-2.81-0.68c-0.14,0-0.38,0.01-0.71,0.03c-0.34,0.02-0.58,0.04-0.75,0.04V19c2,0.09,3.72,0.15,5.18,0.19
			c1.46,0.05,2.67,0.07,3.65,0.07c1.18,0,2.56-0.03,4.11-0.09c1.56-0.06,3.48-0.15,5.79-0.27c0,1.31,0.91,4.25,2.74,8.83
			c0.64,1.62,1.14,2.87,1.49,3.77L358.49,41.53z"/>
	</g>
	<g>
		<path d="M51.57,89.35c0.07,0.01,0.13,0.02,0.19,0.02s0.16,0.01,0.28,0.01c1.28,0,1.92-1.75,1.94-5.26
			c0.01-0.88,0.02-1.57,0.03-2.07l0.06-3.84c0.01-0.82,0.02-1.63,0.02-2.41c0-0.78,0.01-1.62,0.01-2.53c0-0.81-0.15-1.37-0.46-1.67
			c-0.31-0.31-0.85-0.46-1.64-0.46h-0.12v-0.99c0.64,0.05,1.28,0.08,1.91,0.1c0.63,0.02,1.24,0.03,1.83,0.03
			c0.64,0,1.44-0.02,2.39-0.06c0.95-0.04,1.59-0.06,1.91-0.06c1.96,0,3.58,0.51,4.83,1.52c1.25,1.01,1.88,2.29,1.88,3.81
			c0,1.14-0.31,2.15-0.94,3.03c-0.63,0.89-1.57,1.64-2.83,2.27l2.69,3.98c0.09,0.15,0.24,0.37,0.43,0.65
			c1.86,2.78,3.38,4.17,4.57,4.17h0.14v0.8c-0.14,0.01-0.34,0.03-0.6,0.06c-0.62,0.06-1.08,0.08-1.37,0.08
			c-1.02,0-1.82-0.13-2.41-0.4c-0.59-0.27-1.17-0.79-1.75-1.56c-0.09-0.12-0.63-0.96-1.59-2.51c-0.96-1.55-1.93-3.01-2.91-4.38
			c-0.37,0.04-0.75,0.07-1.16,0.08c-0.41,0.02-0.87,0.03-1.37,0.03h-0.86v4.32c0,1.41,0.15,2.3,0.44,2.67
			c0.3,0.37,0.89,0.56,1.77,0.56c0.03,0,0.07,0,0.12-0.01c0.05-0.01,0.09-0.01,0.12-0.01c0.04,0,0.07,0,0.09,0.01
			c0.02,0.01,0.04,0.01,0.05,0.01v0.93c-0.68-0.04-1.36-0.07-2.03-0.08c-0.67-0.02-1.34-0.03-2-0.03c-0.35,0-0.85,0.01-1.5,0.03
			c-0.64,0.02-1.37,0.05-2.18,0.08V89.35z M56.69,80.34c0.46,0.05,0.89,0.08,1.3,0.1c0.41,0.02,0.77,0.03,1.09,0.03
			c0.27,0,0.58-0.01,0.92-0.02c0.34-0.01,0.72-0.04,1.12-0.08c0.92-0.54,1.6-1.17,2.03-1.89c0.43-0.72,0.65-1.57,0.65-2.57
			c0-1.3-0.43-2.35-1.29-3.14c-0.86-0.79-2.02-1.18-3.48-1.18c-0.39,0-0.78,0.02-1.15,0.05c-0.37,0.03-0.74,0.08-1.11,0.15
			c-0.03,1.16-0.05,2.36-0.06,3.59C56.7,76.6,56.69,78.26,56.69,80.34z"/>
		<path d="M80.57,70.18h2.47c1.25,3.73,2.43,7.13,3.54,10.21c1.12,3.08,2,5.4,2.64,6.94c0.38,0.89,0.71,1.44,0.99,1.65
			c0.28,0.21,0.68,0.31,1.19,0.31h0.29v0.97c-0.75-0.04-1.43-0.07-2.05-0.08c-0.62-0.02-1.14-0.03-1.56-0.03
			c-0.53,0-1.13,0.01-1.77,0.03c-0.64,0.02-1.32,0.05-2.04,0.08v-0.97h0.27c0.68,0,1.14-0.08,1.39-0.23
			c0.25-0.15,0.37-0.44,0.37-0.85c0-0.15-0.02-0.32-0.06-0.5c-0.04-0.18-0.1-0.4-0.19-0.66l-1.41-4.32c-0.37,0-0.86,0-1.5-0.01
			c-1.15-0.03-1.89-0.04-2.21-0.04c-0.65,0-1.27,0-1.85,0.01c-0.58,0-1.18,0.02-1.81,0.03c-0.68,1.68-1.14,2.91-1.39,3.68
			c-0.25,0.77-0.37,1.32-0.37,1.65c0,0.46,0.12,0.78,0.37,0.97c0.25,0.18,0.69,0.27,1.34,0.27h0.39v0.97
			c-0.7-0.04-1.35-0.07-1.96-0.08c-0.61-0.02-1.15-0.03-1.63-0.03c-0.38,0-0.86,0.01-1.44,0.03c-0.58,0.02-1.2,0.05-1.87,0.08v-0.96
			c0.68-0.02,1.22-0.15,1.62-0.4c0.4-0.25,0.74-0.66,1.04-1.25c0.54-1.1,1.49-3.3,2.85-6.6C77.61,77.76,79.05,74.13,80.57,70.18z
			 M81.22,72.83l-3.29,8.42c0.18,0,0.45,0.01,0.79,0.01c1.08,0.03,1.82,0.04,2.21,0.04c0.48,0,1.35-0.01,2.6-0.04
			c0.28-0.01,0.49-0.01,0.63-0.01L81.22,72.83z"/>
		<path d="M111.32,70.81v0.48c0,0.66,0.02,1.34,0.07,2.05c0.05,0.71,0.12,1.45,0.21,2.23l-1.05,0.17c-0.19-1.35-0.84-2.4-1.95-3.16
			c-1.11-0.76-2.56-1.13-4.36-1.13c-2.39,0-4.23,0.72-5.53,2.15c-1.3,1.43-1.95,3.46-1.95,6.09c0,2.81,0.74,5.07,2.24,6.81
			c1.49,1.73,3.42,2.6,5.8,2.6c1.49,0,2.79-0.34,3.89-1.01c1.1-0.67,1.95-1.66,2.57-2.97l0.96,0.46c-0.31,0.61-0.58,1.23-0.83,1.87
			c-0.25,0.63-0.47,1.27-0.66,1.91c-1.04,0.46-2.09,0.81-3.16,1.04c-1.07,0.23-2.15,0.35-3.23,0.35c-3.18,0-5.76-0.96-7.73-2.89
			c-1.97-1.93-2.95-4.46-2.95-7.61c0-3.1,1.04-5.62,3.12-7.56c2.08-1.95,4.77-2.92,8.06-2.92c0.98,0,2.01,0.09,3.1,0.27
			C109.02,70.19,110.15,70.46,111.32,70.81z"/>
		<path d="M128.63,89.91l3.29,1.94c1.61,0.93,2.89,1.57,3.84,1.91c0.95,0.34,1.85,0.51,2.7,0.51c0.28,0,0.6-0.02,0.98-0.07
			c0.37-0.05,0.82-0.12,1.35-0.22l0.17,0.87c-1.36,0.37-2.37,0.62-3.03,0.74c-0.66,0.12-1.24,0.18-1.75,0.18
			c-2.04,0-5.45-1.59-10.24-4.76l-0.59-0.39c-0.07,0-0.17,0-0.31,0.01c-0.14,0.01-0.24,0.01-0.31,0.01c-2.93,0-5.35-0.99-7.27-2.96
			c-1.91-1.97-2.87-4.46-2.87-7.46c0-1.5,0.28-2.91,0.86-4.22c0.57-1.31,1.4-2.48,2.48-3.51c0.96-0.9,2.05-1.59,3.28-2.07
			c1.23-0.48,2.51-0.72,3.84-0.72c1.44,0,2.73,0.21,3.88,0.62c1.14,0.41,2.18,1.04,3.11,1.89c1.12,1.04,1.98,2.24,2.57,3.6
			c0.59,1.36,0.89,2.8,0.89,4.32c0,2.33-0.6,4.34-1.8,6.05C132.52,87.9,130.83,89.14,128.63,89.91z M132.34,80.64
			c0-2.73-0.72-4.97-2.16-6.72c-1.44-1.75-3.25-2.63-5.44-2.63c-2.1,0-3.78,0.75-5.05,2.25c-1.27,1.5-1.91,3.51-1.91,6.02
			c0,2.82,0.72,5.12,2.17,6.89c1.45,1.77,3.29,2.65,5.52,2.65c2.05,0,3.71-0.77,4.97-2.31C131.71,85.25,132.34,83.2,132.34,80.64z"
			/>
		<path d="M145.47,70.18v0.96c-0.06,0-0.14,0-0.24-0.01c-0.1-0.01-0.18-0.01-0.23-0.01c-0.76,0-1.27,0.24-1.54,0.73
			c-0.27,0.49-0.4,1.65-0.4,3.48v2.23v2.92c0,1.52,0.05,2.64,0.14,3.37c0.1,0.72,0.25,1.32,0.47,1.79c0.47,1.01,1.16,1.79,2.08,2.32
			c0.92,0.53,2.02,0.8,3.31,0.8c0.97,0,1.82-0.14,2.54-0.41c0.73-0.27,1.35-0.69,1.87-1.25c0.52-0.56,0.88-1.25,1.09-2.07
			c0.21-0.82,0.32-2.18,0.32-4.09c0-2.29-0.03-4.22-0.08-5.78c-0.05-1.56-0.12-2.51-0.21-2.84c-0.13-0.43-0.34-0.73-0.63-0.9
			c-0.28-0.17-0.74-0.25-1.37-0.25h-0.22v-0.96c0.12,0,0.28,0.01,0.5,0.01c1.32,0.07,2.27,0.1,2.83,0.1c0.56,0,1.5-0.03,2.82-0.1
			c0.23-0.01,0.4-0.01,0.5-0.01v0.96h-0.17c-0.57,0-0.99,0.07-1.27,0.21c-0.28,0.14-0.49,0.38-0.61,0.7
			c-0.11,0.27-0.18,0.99-0.23,2.15c-0.05,1.16-0.07,3.04-0.07,5.63v1.41c0,1.48-0.06,2.62-0.17,3.4c-0.12,0.78-0.3,1.48-0.56,2.08
			c-0.54,1.25-1.46,2.23-2.78,2.94c-1.31,0.71-2.86,1.07-4.64,1.07c-1.24,0-2.37-0.18-3.41-0.54c-1.04-0.36-1.92-0.87-2.65-1.55
			c-0.8-0.71-1.36-1.56-1.7-2.53c-0.34-0.97-0.5-2.33-0.5-4.08c0-0.68,0.01-1.78,0.03-3.32c0.02-1.54,0.03-2.74,0.03-3.6v-0.44
			c0-1.61-0.14-2.61-0.41-2.99c-0.27-0.38-0.81-0.56-1.6-0.56h-0.26v-0.96c0.68,0.04,1.33,0.07,1.94,0.08
			c0.61,0.02,1.17,0.03,1.68,0.03c0.61,0,1.24-0.01,1.87-0.03C144.17,70.25,144.81,70.22,145.47,70.18z"/>
		<path d="M161.45,70.18c1.68,0.06,3.18,0.1,4.5,0.13c1.32,0.03,2.46,0.04,3.42,0.04c1.06,0,2.14-0.01,3.23-0.04
			c1.09-0.03,2.19-0.07,3.31-0.13c0.01,0.7,0.04,1.42,0.09,2.16c0.05,0.74,0.11,1.48,0.17,2.22l-0.96,0.08
			c-0.08-1.13-0.43-1.89-1.06-2.29c-0.63-0.4-2-0.6-4.1-0.6c-0.54,0-1.52,0.01-2.95,0.04c-0.29,0.01-0.5,0.01-0.63,0.01
			c-0.02,1.13-0.05,2.51-0.09,4.14c-0.04,1.63-0.06,2.69-0.07,3.18h0.45c0.57,0,1.27,0.01,2.12,0.02c0.85,0.01,1.42,0.02,1.7,0.02
			c1.39,0,2.31-0.13,2.75-0.38c0.45-0.25,0.69-0.72,0.73-1.41l0.91,0.08c-0.07,0.58-0.12,1.12-0.15,1.62
			c-0.03,0.5-0.05,0.96-0.05,1.38c0,0.24,0.02,0.77,0.07,1.58c0.02,0.29,0.03,0.51,0.04,0.66l-0.93,0.03v-0.11
			c0-0.8-0.24-1.34-0.71-1.62c-0.47-0.28-1.58-0.42-3.33-0.42h-2.56h-1.03c0,0.46,0,1.1-0.01,1.91c-0.01,0.81-0.01,1.4-0.01,1.75
			c0,0.62,0,1.26,0.01,1.94c0.01,0.67,0.03,1.46,0.06,2.36c0.48,0.06,1.02,0.1,1.63,0.13c0.61,0.03,1.28,0.04,2.01,0.04
			c2.41,0,3.99-0.23,4.75-0.68c0.76-0.46,1.37-1.33,1.82-2.63l1.03,0.34c-0.29,0.78-0.54,1.54-0.76,2.29
			c-0.22,0.75-0.41,1.5-0.58,2.24c-1.5-0.06-2.9-0.1-4.2-0.13c-1.29-0.03-2.46-0.04-3.51-0.04c-1.43,0-3.73,0.05-6.9,0.16
			l-0.52,0.01v-0.92c0.07,0.01,0.13,0.02,0.19,0.02c0.06,0,0.16,0.01,0.28,0.01c1.27,0,1.92-1.75,1.94-5.26
			c0.01-0.88,0.02-1.57,0.03-2.07l0.06-3.84c0.01-0.82,0.02-1.63,0.02-2.41c0-0.78,0.01-1.62,0.01-2.53c0-0.81-0.15-1.37-0.46-1.67
			c-0.31-0.31-0.85-0.46-1.64-0.46h-0.12V70.18z"/>
		<path d="M183.51,89.28h0.5c0.68,0,1.16-0.08,1.45-0.25c0.29-0.16,0.49-0.47,0.6-0.91c0.09-0.29,0.15-1.35,0.18-3.17
			c0.03-1.82,0.05-4.65,0.05-8.5v-4.49h-2.9c-1.41,0-2.36,0.19-2.85,0.56c-0.49,0.37-0.86,1.15-1.1,2.34l-0.93-0.2
			c0.18-0.82,0.32-1.62,0.42-2.41c0.1-0.79,0.14-1.56,0.14-2.32c0.29,0.18,0.87,0.31,1.75,0.38c0.88,0.08,2.41,0.11,4.61,0.11h3.51
			c2.91,0,4.79-0.03,5.63-0.11c0.84-0.07,1.43-0.2,1.76-0.39c0,0.09,0,0.24-0.01,0.44c-0.01,0.2-0.01,0.35-0.01,0.46
			c0,0.59,0.03,1.2,0.08,1.83c0.05,0.63,0.13,1.28,0.24,1.94l-0.91,0.17c-0.12-1.06-0.41-1.78-0.88-2.17s-1.47-0.6-3-0.65h-2.72
			c-0.01,0.53-0.02,1.29-0.03,2.27c-0.02,2.56-0.03,4.28-0.03,5.17c0,3.33,0.02,5.59,0.07,6.77c0.04,1.18,0.12,1.92,0.22,2.21
			c0.12,0.34,0.33,0.57,0.62,0.7c0.29,0.13,0.73,0.2,1.32,0.2h0.5v0.99c-0.8-0.04-1.55-0.07-2.25-0.08
			c-0.7-0.02-1.34-0.03-1.89-0.03c-0.49,0-1.09,0.01-1.8,0.03c-0.71,0.02-1.49,0.05-2.32,0.08V89.28z"/>
		<path d="M210.79,70.78c0,0.69,0.04,1.38,0.12,2.06c0.08,0.67,0.21,1.34,0.38,2l-1.12,0.21c-0.16-1.16-0.62-2.03-1.37-2.59
			c-0.75-0.56-1.81-0.85-3.18-0.85c-1.27,0-2.29,0.3-3.08,0.9c-0.79,0.6-1.19,1.37-1.19,2.32c0,1.56,1.69,2.89,5.06,4
			c0.45,0.14,0.8,0.25,1.03,0.34c1.54,0.53,2.68,1.2,3.41,2.02c0.73,0.82,1.09,1.84,1.09,3.05c0,1.87-0.72,3.38-2.17,4.54
			s-3.36,1.74-5.75,1.74c-0.91,0-1.8-0.07-2.67-0.22c-0.87-0.15-1.75-0.37-2.64-0.68c0.01-0.09,0.02-0.2,0.02-0.33
			c0-0.13,0.01-0.31,0.01-0.56c0-0.67-0.04-1.32-0.12-1.97c-0.08-0.65-0.19-1.29-0.34-1.94l1.29-0.3c0.16,1.54,0.66,2.67,1.48,3.38
			c0.82,0.71,2.05,1.07,3.67,1.07c1.42,0,2.57-0.35,3.46-1.05c0.89-0.7,1.34-1.6,1.34-2.7c0-1.56-1.39-2.77-4.17-3.63
			c-0.39-0.12-0.7-0.22-0.92-0.3c-1.93-0.61-3.31-1.36-4.14-2.24c-0.83-0.88-1.25-2.01-1.25-3.38c0-1.61,0.65-2.96,1.95-4.04
			c1.3-1.08,2.94-1.62,4.9-1.62c0.72,0,1.45,0.06,2.19,0.17C208.83,70.31,209.73,70.5,210.79,70.78z"/>
		<path d="M237.48,82.26c0.1,0.28,0.18,0.55,0.24,0.79c0.05,0.24,0.08,0.49,0.08,0.73c0,0.67-0.14,1.34-0.43,2.01
			s-0.7,1.33-1.25,1.97c-0.83,0.97-1.85,1.73-3.03,2.29s-2.39,0.84-3.59,0.84c-2.13,0-3.88-0.6-5.25-1.82
			c-1.37-1.21-2.06-2.74-2.06-4.59c0-1.63,0.54-2.96,1.63-3.98c1.09-1.02,2.68-1.7,4.79-2.05c-0.79-0.22-1.4-0.63-1.84-1.21
			c-0.44-0.58-0.66-1.28-0.66-2.1c0-1.29,0.56-2.4,1.68-3.31c1.12-0.91,2.48-1.36,4.08-1.36c1.07,0,1.99,0.24,2.75,0.73
			c0.76,0.49,1.14,1.05,1.14,1.69c0,0.22-0.06,0.4-0.19,0.56c-0.13,0.16-0.32,0.29-0.58,0.39l-0.73,0.31
			c-0.3-0.85-0.69-1.48-1.17-1.89c-0.48-0.41-1.09-0.61-1.8-0.61c-0.84,0-1.55,0.29-2.12,0.87c-0.57,0.58-0.86,1.31-0.86,2.18
			c0,0.81,0.25,1.5,0.74,2.08c0.49,0.58,1.18,0.98,2.06,1.22l-0.2,0.97c-1.9,0.13-3.38,0.65-4.44,1.57c-1.06,0.92-1.6,2.11-1.6,3.6
			c0,1.46,0.5,2.67,1.49,3.6c0.99,0.94,2.27,1.41,3.83,1.41c1.65,0,3.02-0.49,4.13-1.48c1.1-0.99,1.65-2.19,1.65-3.62
			c0-0.33-0.04-0.64-0.11-0.94c-0.07-0.3-0.17-0.58-0.31-0.85c-0.13-0.01-0.3-0.02-0.52-0.03c-0.58-0.02-0.97-0.03-1.16-0.03
			c-1.16,0-2.03,0.14-2.6,0.41c-0.58,0.27-0.86,0.68-0.86,1.22c0,0.23,0.07,0.47,0.22,0.7c0.14,0.23,0.36,0.47,0.66,0.72l-0.42,0.49
			c-0.08,0.08-0.18,0.15-0.31,0.2c-0.13,0.05-0.26,0.08-0.4,0.08c-0.34,0-0.62-0.15-0.84-0.44c-0.22-0.29-0.34-0.67-0.34-1.13
			c0-1,0.41-1.86,1.24-2.58c0.82-0.72,1.96-1.2,3.41-1.44c0.39-0.07,0.81-0.13,1.26-0.16c0.45-0.03,1.1-0.05,1.96-0.05h0.59
			c0.84,0,1.49-0.02,1.95-0.08c0.46-0.05,0.86-0.14,1.19-0.26c0.47-0.17,0.83-0.41,1.08-0.72c0.25-0.31,0.37-0.68,0.37-1.1
			c0-0.57-0.19-1.02-0.55-1.34c-0.37-0.32-0.87-0.48-1.52-0.48c-0.17,0-0.44,0.01-0.79,0.04c-0.07,0.01-0.12,0.01-0.14,0.01
			c-0.01-0.03-0.01-0.07-0.01-0.11c-0.03-0.22-0.04-0.37-0.04-0.44c0-0.44,0.13-0.77,0.38-0.99c0.25-0.22,0.64-0.33,1.14-0.33
			c0.82,0,1.51,0.28,2.06,0.84c0.55,0.56,0.83,1.26,0.83,2.1c0,1.37-0.51,2.52-1.52,3.46c-1.02,0.94-2.29,1.41-3.81,1.41
			c-0.16,0-0.28,0-0.36-0.01C237.62,82.27,237.54,82.27,237.48,82.26z"/>
		<path d="M250.82,89.35c0.07,0.01,0.13,0.02,0.19,0.02s0.16,0.01,0.28,0.01c1.27,0,1.92-1.75,1.94-5.26
			c0.01-0.88,0.02-1.57,0.03-2.07l0.06-3.84c0.01-0.82,0.02-1.63,0.02-2.41c0-0.78,0.01-1.62,0.01-2.53c0-0.81-0.15-1.37-0.46-1.67
			c-0.31-0.31-0.85-0.46-1.64-0.46h-0.12v-0.99c0.64,0.05,1.28,0.08,1.91,0.1c0.63,0.02,1.24,0.03,1.83,0.03
			c0.64,0,1.44-0.02,2.39-0.06c0.95-0.04,1.59-0.06,1.9-0.06c1.96,0,3.58,0.51,4.83,1.52c1.25,1.01,1.88,2.29,1.88,3.81
			c0,1.14-0.31,2.15-0.94,3.03c-0.63,0.89-1.57,1.64-2.82,2.27l2.69,3.98c0.1,0.15,0.24,0.37,0.43,0.65
			c1.86,2.78,3.38,4.17,4.57,4.17h0.14v0.8c-0.13,0.01-0.34,0.03-0.6,0.06c-0.62,0.06-1.08,0.08-1.37,0.08
			c-1.02,0-1.82-0.13-2.41-0.4c-0.59-0.27-1.17-0.79-1.75-1.56c-0.1-0.12-0.63-0.96-1.59-2.51c-0.96-1.55-1.93-3.01-2.91-4.38
			c-0.36,0.04-0.75,0.07-1.16,0.08c-0.41,0.02-0.87,0.03-1.37,0.03h-0.86v4.32c0,1.41,0.15,2.3,0.45,2.67
			c0.3,0.37,0.89,0.56,1.77,0.56c0.03,0,0.07,0,0.12-0.01c0.05-0.01,0.09-0.01,0.12-0.01c0.04,0,0.07,0,0.09,0.01
			c0.02,0.01,0.04,0.01,0.05,0.01v0.93c-0.68-0.04-1.36-0.07-2.03-0.08c-0.67-0.02-1.34-0.03-2-0.03c-0.35,0-0.85,0.01-1.5,0.03
			c-0.64,0.02-1.37,0.05-2.18,0.08V89.35z M255.94,80.34c0.46,0.05,0.89,0.08,1.3,0.1c0.41,0.02,0.77,0.03,1.09,0.03
			c0.27,0,0.57-0.01,0.92-0.02c0.35-0.01,0.72-0.04,1.12-0.08c0.92-0.54,1.6-1.17,2.03-1.89c0.43-0.72,0.65-1.57,0.65-2.57
			c0-1.3-0.43-2.35-1.29-3.14c-0.86-0.79-2.02-1.18-3.48-1.18c-0.39,0-0.78,0.02-1.15,0.05c-0.37,0.03-0.74,0.08-1.11,0.15
			c-0.03,1.16-0.05,2.36-0.06,3.59C255.94,76.6,255.94,78.26,255.94,80.34z"/>
		<path d="M279.03,70.18v0.96c-0.06,0-0.14,0-0.24-0.01c-0.11-0.01-0.18-0.01-0.23-0.01c-0.76,0-1.27,0.24-1.54,0.73
			c-0.27,0.49-0.4,1.65-0.4,3.48v2.23v2.92c0,1.52,0.05,2.64,0.14,3.37c0.09,0.72,0.25,1.32,0.47,1.79
			c0.47,1.01,1.16,1.79,2.08,2.32c0.92,0.53,2.02,0.8,3.31,0.8c0.97,0,1.82-0.14,2.55-0.41c0.73-0.27,1.35-0.69,1.87-1.25
			c0.52-0.56,0.88-1.25,1.09-2.07c0.21-0.82,0.32-2.18,0.32-4.09c0-2.29-0.03-4.22-0.08-5.78c-0.05-1.56-0.12-2.51-0.21-2.84
			c-0.13-0.43-0.34-0.73-0.62-0.9c-0.28-0.17-0.74-0.25-1.37-0.25h-0.21v-0.96c0.11,0,0.28,0.01,0.5,0.01
			c1.32,0.07,2.27,0.1,2.83,0.1c0.56,0,1.49-0.03,2.82-0.1c0.23-0.01,0.4-0.01,0.5-0.01v0.96h-0.17c-0.56,0-0.99,0.07-1.27,0.21
			c-0.28,0.14-0.49,0.38-0.61,0.7c-0.11,0.27-0.18,0.99-0.23,2.15c-0.05,1.16-0.07,3.04-0.07,5.63v1.41c0,1.48-0.06,2.62-0.17,3.4
			c-0.12,0.78-0.3,1.48-0.56,2.08c-0.54,1.25-1.46,2.23-2.78,2.94c-1.31,0.71-2.86,1.07-4.65,1.07c-1.23,0-2.37-0.18-3.41-0.54
			c-1.04-0.36-1.92-0.87-2.65-1.55c-0.79-0.71-1.36-1.56-1.7-2.53c-0.34-0.97-0.5-2.33-0.5-4.08c0-0.68,0.01-1.78,0.03-3.32
			c0.02-1.54,0.03-2.74,0.03-3.6v-0.44c0-1.61-0.14-2.61-0.41-2.99c-0.27-0.38-0.81-0.56-1.6-0.56h-0.26v-0.96
			c0.68,0.04,1.33,0.07,1.94,0.08c0.61,0.02,1.17,0.03,1.68,0.03c0.61,0,1.24-0.01,1.87-0.03
			C277.73,70.25,278.37,70.22,279.03,70.18z"/>
		<path d="M294.48,70.18c0.45,0.04,0.89,0.07,1.32,0.08c0.42,0.02,0.84,0.03,1.26,0.03c0.31,0,0.67-0.01,1.08-0.03
			c0.41-0.02,0.86-0.05,1.34-0.08c0.12,0.31,0.3,0.63,0.52,0.96c0.22,0.33,0.5,0.69,0.84,1.08l11.86,13.74
			c-0.03-1.43-0.06-3.32-0.09-5.67c-0.08-4.95-0.16-7.61-0.26-7.98c-0.12-0.43-0.32-0.73-0.61-0.9c-0.29-0.17-0.77-0.25-1.43-0.25
			h-0.45v-0.97c0.12,0,0.29,0.01,0.52,0.01c1.36,0.07,2.32,0.1,2.87,0.1c0.57,0,1.55-0.03,2.96-0.1c0.2-0.01,0.35-0.01,0.46-0.01
			l-0.02,0.97c-0.06-0.01-0.12-0.02-0.19-0.02c-0.07,0-0.16-0.01-0.27-0.01c-1.28,0-1.94,1.75-1.96,5.25
			c-0.01,0.88-0.01,1.57-0.01,2.07l-0.06,3.74c-0.02,0.55-0.03,1.12-0.04,1.71c-0.01,0.59-0.01,1.39-0.01,2.41
			c0,1.14,0.01,2.02,0.04,2.65c0.03,0.63,0.07,1.14,0.14,1.53h-1.59c-0.16-0.38-0.74-1.13-1.74-2.25l-0.14-0.17l-12.34-14.2v0.32
			c0.06,8.78,0.15,13.43,0.29,13.93c0.11,0.43,0.32,0.73,0.61,0.9c0.29,0.17,0.76,0.25,1.4,0.25h0.43v0.99
			c-0.14-0.01-0.35-0.02-0.63-0.03c-1.34-0.06-2.26-0.08-2.74-0.08c-0.47,0-0.99,0.01-1.56,0.03c-0.57,0.02-1.17,0.05-1.8,0.08
			v-0.97c0.06,0,0.12,0,0.19,0.01c0.07,0,0.16,0.01,0.28,0.01c1.28,0,1.94-1.74,1.96-5.22c0.01-0.88,0.01-1.57,0.01-2.07l0.07-3.74
			c0.01-0.81,0.02-1.59,0.02-2.36c0.01-0.77,0.01-1.64,0.01-2.63c0-0.81-0.16-1.37-0.47-1.68c-0.32-0.31-0.88-0.46-1.68-0.46h-0.39
			V70.18z"/>
		<path d="M318.81,70.18c1.68,0.06,3.18,0.1,4.5,0.13c1.32,0.03,2.46,0.04,3.42,0.04c1.06,0,2.14-0.01,3.23-0.04
			c1.09-0.03,2.19-0.07,3.31-0.13c0.01,0.7,0.04,1.42,0.09,2.16c0.05,0.74,0.11,1.48,0.17,2.22l-0.96,0.08
			c-0.08-1.13-0.43-1.89-1.07-2.29c-0.63-0.4-2-0.6-4.1-0.6c-0.53,0-1.52,0.01-2.95,0.04c-0.29,0.01-0.5,0.01-0.63,0.01
			c-0.02,1.13-0.05,2.51-0.09,4.14c-0.04,1.63-0.06,2.69-0.07,3.18h0.44c0.57,0,1.27,0.01,2.12,0.02c0.85,0.01,1.42,0.02,1.7,0.02
			c1.39,0,2.31-0.13,2.75-0.38c0.45-0.25,0.69-0.72,0.73-1.41l0.91,0.08c-0.07,0.58-0.12,1.12-0.15,1.62
			c-0.03,0.5-0.05,0.96-0.05,1.38c0,0.24,0.02,0.77,0.07,1.58c0.02,0.29,0.03,0.51,0.05,0.66l-0.93,0.03v-0.11
			c0-0.8-0.24-1.34-0.71-1.62c-0.47-0.28-1.58-0.42-3.33-0.42h-2.56h-1.04c0,0.46,0,1.1-0.02,1.91c-0.01,0.81-0.01,1.4-0.01,1.75
			c0,0.62,0,1.26,0.01,1.94c0.01,0.67,0.03,1.46,0.06,2.36c0.48,0.06,1.02,0.1,1.63,0.13s1.28,0.04,2.01,0.04
			c2.41,0,3.99-0.23,4.75-0.68c0.76-0.46,1.37-1.33,1.82-2.63l1.04,0.34c-0.29,0.78-0.54,1.54-0.76,2.29
			c-0.22,0.75-0.41,1.5-0.58,2.24c-1.5-0.06-2.9-0.1-4.2-0.13s-2.46-0.04-3.51-0.04c-1.43,0-3.73,0.05-6.9,0.16l-0.52,0.01v-0.92
			c0.07,0.01,0.13,0.02,0.19,0.02c0.06,0,0.16,0.01,0.28,0.01c1.28,0,1.92-1.75,1.94-5.26c0.01-0.88,0.02-1.57,0.03-2.07l0.06-3.84
			c0.01-0.82,0.02-1.63,0.02-2.41s0.01-1.62,0.01-2.53c0-0.81-0.15-1.37-0.46-1.67c-0.31-0.31-0.85-0.46-1.64-0.46h-0.12V70.18z"/>
		<path d="M349.57,70.78c0,0.69,0.04,1.38,0.12,2.06c0.08,0.67,0.21,1.34,0.38,2l-1.12,0.21c-0.16-1.16-0.62-2.03-1.37-2.59
			c-0.75-0.56-1.81-0.85-3.18-0.85c-1.26,0-2.29,0.3-3.08,0.9c-0.79,0.6-1.19,1.37-1.19,2.32c0,1.56,1.69,2.89,5.06,4
			c0.45,0.14,0.79,0.25,1.03,0.34c1.54,0.53,2.68,1.2,3.41,2.02c0.73,0.82,1.09,1.84,1.09,3.05c0,1.87-0.72,3.38-2.17,4.54
			c-1.44,1.16-3.36,1.74-5.75,1.74c-0.91,0-1.8-0.07-2.67-0.22c-0.87-0.15-1.74-0.37-2.64-0.68c0.01-0.09,0.02-0.2,0.02-0.33
			c0-0.13,0.01-0.31,0.01-0.56c0-0.67-0.04-1.32-0.12-1.97c-0.08-0.65-0.19-1.29-0.34-1.94l1.29-0.3c0.16,1.54,0.66,2.67,1.48,3.38
			c0.83,0.71,2.05,1.07,3.67,1.07c1.42,0,2.57-0.35,3.46-1.05c0.89-0.7,1.34-1.6,1.34-2.7c0-1.56-1.39-2.77-4.17-3.63
			c-0.39-0.12-0.7-0.22-0.92-0.3c-1.93-0.61-3.31-1.36-4.14-2.24c-0.83-0.88-1.25-2.01-1.25-3.38c0-1.61,0.65-2.96,1.95-4.04
			c1.3-1.08,2.94-1.62,4.9-1.62c0.72,0,1.45,0.06,2.19,0.17C347.61,70.31,348.51,70.5,349.57,70.78z"/>
	</g>
</g>
</svg>
