<?xml version="1.0" encoding="utf-8"?>
<!-- Generator: Adobe Illustrator 16.0.4, SVG Export Plug-In . SVG Version: 6.00 Build 0)  -->
<!DOCTYPE svg PUBLIC "-//W3C//DTD SVG 1.1//EN" "http://www.w3.org/Graphics/SVG/1.1/DTD/svg11.dtd">
<svg version="1.1" id="Layer_1" xmlns="http://www.w3.org/2000/svg" xmlns:xlink="http://www.w3.org/1999/xlink" x="0px" y="0px"
	 width="100px" height="114px" viewBox="0 0 100 114" enable-background="new 0 0 100 114" xml:space="preserve">
<path fill="#FFFFFF" d="M0,0v104.434C0,109.369,5.68,114,10.618,114h78.764c4.938,0,10.618-4.631,10.618-9.566V0H0z"/>
<path fill="#1A1A1A" d="M50.223,19.586c-25.002,0-41.176,25.49-41.176,25.49s16.174,25.49,41.176,25.49
	c25.001,0,41.177-25.49,41.177-25.49S75.225,19.586,50.223,19.586z M50.221,62.747c-9.758,0-17.668-7.915-17.668-17.671
	c0-9.758,7.91-17.668,17.668-17.668c9.759,0,17.673,7.91,17.673,17.668C67.895,54.832,59.98,62.747,50.221,62.747z"/>
<path fill="#1A1A1A" d="M40.903,49.666l8.544-18.922h4.075l-8.633,18.922h6.676v-7.603h3.651v7.603h2.054v3.545h-2.054v3.932h-3.651
	v-3.929l-10.663-0.003L40.903,49.666L40.903,49.666z"/>
<path fill="#1A1A1A" d="M11.264,85.107c0.023-2.166,0.69-3.795,2.001-4.892c1.229-1.067,2.627-1.604,4.197-1.604
	c1.593,0,3.01,0.535,4.25,1.607c1.252,1.094,1.901,2.727,1.948,4.893v1.353h-3.686v-1.356c-0.024-0.931-0.261-1.621-0.712-2.072
	c-0.487-0.416-1.087-0.623-1.8-0.623c-0.678,0-1.26,0.207-1.746,0.621c-0.511,0.449-0.767,1.142-0.767,2.066v14.09
	c0,0.903,0.255,1.58,0.767,2.031c0.486,0.438,1.068,0.659,1.746,0.659c0.713,0,1.312-0.221,1.8-0.662
	c0.451-0.448,0.688-1.127,0.712-2.03V94.17h-2.939v-3.357h6.625v8.371c-0.047,2.164-0.696,3.781-1.948,4.854
	c-1.24,1.094-2.657,1.642-4.25,1.642c-1.57,0-2.969-0.546-4.197-1.642c-1.311-1.067-1.978-2.687-2.001-4.851V85.107z"/>
<path fill="#1A1A1A" d="M31.516,78.832h3.081l5.754,26.625H36.65l-1.079-5.717h-5.047l-1.079,5.717h-3.7L31.516,78.832z
	 M33.074,86.5h-0.07l-1.824,9.664h3.701L33.074,86.5z"/>
<path fill="#1A1A1A" d="M42.619,78.832h3.561l4.747,14.1h0.071l4.729-14.1h3.562v26.625h-3.688V89.254h-0.068l-3.674,11.453h-1.845
	l-3.637-11.453h-0.072v16.203H42.62L42.619,78.832L42.619,78.832z"/>
<path fill="#1A1A1A" d="M63.418,78.832H74.42v3.578h-7.316v7.838h6.379v3.574h-6.379v7.839h7.316v3.796H63.418V78.832z"/>
<path fill="#1A1A1A" d="M89.219,86.49h-3.686v-0.859c0-0.928-0.195-1.701-0.582-2.324c-0.4-0.574-1.07-0.871-2.01-0.896
	c-0.986,0.024-1.65,0.371-1.992,1.041c-0.342,0.671-0.512,1.469-0.512,2.396c-0.025,0.979,0.1,1.713,0.371,2.211
	c0.258,0.524,0.834,0.969,1.727,1.334l2.822,1.17c1.586,0.6,2.645,1.471,3.174,2.612c0.482,1.185,0.711,2.744,0.688,4.681
	c0,2.305-0.461,4.162-1.379,5.574c-0.967,1.475-2.629,2.223-4.984,2.247c-1.812-0.024-3.299-0.631-4.451-1.821
	c-1.215-1.168-1.834-2.662-1.854-4.484v-1.422h3.686v1.205c0,0.695,0.207,1.318,0.621,1.867c0.392,0.572,1.06,0.86,2.002,0.86
	c1.229,0,2.005-0.373,2.322-1.114c0.188-0.354,0.295-0.769,0.316-1.244c0.021-0.475,0.037-1.01,0.037-1.605
	c0-1.365-0.119-2.298-0.354-2.797c-0.295-0.5-0.893-0.914-1.785-1.242l-2.633-1.113c-1.547-0.686-2.604-1.584-3.184-2.705
	c-0.58-1.121-0.854-2.504-0.832-4.148c0-2.071,0.529-3.809,1.59-5.208c1.062-1.365,2.641-2.06,4.734-2.084
	c1.883,0.024,3.377,0.646,4.484,1.856c1.082,1.215,1.635,2.594,1.659,4.135L89.219,86.49L89.219,86.49z"/>
</svg>
